<svg width="999" height="804" viewBox="0 0 999 804" fill="none" xmlns="http://www.w3.org/2000/svg">
<g filter="url(#filter0_n_223_476)">
<circle cx="636.158" cy="375.142" r="259.065" transform="rotate(28.9893 636.158 375.142)" fill="#FF4C00" fill-opacity="0.7"/>
</g>
<g filter="url(#filter1_n_223_476)">
<rect x="232.853" y="151.685" width="461.073" height="461.073" transform="rotate(28.9893 232.853 151.685)" fill="#00BAB4" fill-opacity="0.7" style="mix-blend-mode:multiply"/>
</g>
<mask id="mask0_223_476" style="mask-type:alpha" maskUnits="userSpaceOnUse" x="377" y="116" width="519" height="519">
<circle cx="636.146" cy="375.324" r="259.065" transform="rotate(28.9893 636.146 375.324)" fill="#FF4C00" fill-opacity="0.7"/>
</mask>
<g mask="url(#mask0_223_476)">
<g filter="url(#filter2_n_223_476)">
<path d="M636.146 375.323L412.689 778.629L9.38253 555.173L232.839 151.866L636.146 375.323Z" fill="#335827" fill-opacity="0.7" style="mix-blend-mode:multiply"/>
</g>
</g>
<g filter="url(#filter3_d_223_476)">
<path d="M407.272 404.752V393.088H418.648V402.784C418.648 403.424 418.496 403.88 418.192 404.152C417.888 404.44 417.384 404.584 416.68 404.584H415.744C415.728 404.392 415.688 404.16 415.624 403.888C415.576 403.616 415.52 403.4 415.456 403.24H416.56C416.848 403.24 417.04 403.192 417.136 403.096C417.232 403.016 417.28 402.824 417.28 402.52V398.848H415.048V404.176H413.848V398.848H411.856V404.176H410.656V398.848H408.616V404.752H407.272ZM399.112 403.912V397.36H405.352V403.912H399.112ZM406.576 391.456C406.544 391.408 406.456 391.304 406.312 391.144C406.168 390.984 406.024 390.824 405.88 390.664C405.736 390.504 405.632 390.4 405.568 390.352C406.224 390 406.88 389.544 407.536 388.984C408.192 388.408 408.824 387.776 409.432 387.088C410.04 386.4 410.584 385.704 411.064 385C411.544 384.296 411.92 383.632 412.192 383.008L413.584 383.248C414.048 384.128 414.664 385.016 415.432 385.912C416.2 386.792 417.048 387.6 417.976 388.336C418.904 389.056 419.816 389.624 420.712 390.04C420.648 390.088 420.544 390.192 420.4 390.352C420.256 390.512 420.12 390.68 419.992 390.856C419.864 391.016 419.776 391.136 419.728 391.216C418.976 390.832 418.16 390.304 417.28 389.632C416.4 388.944 415.568 388.168 414.784 387.304C414 386.424 413.376 385.528 412.912 384.616C412.624 385.192 412.24 385.8 411.76 386.44C411.28 387.08 410.744 387.712 410.152 388.336C409.576 388.96 408.976 389.544 408.352 390.088C407.744 390.616 407.152 391.072 406.576 391.456ZM400.504 402.616H403.96V398.68H400.504V402.616ZM397.888 388.864V387.544H406.288V388.864H397.888ZM409.024 391.096V389.824H416.872V391.096H409.024ZM399.04 395.416V394.096H405.208V395.416H399.04ZM399.04 392.152V390.832H405.208V392.152H399.04ZM399.04 385.6V384.28H405.208V385.6H399.04ZM415.048 397.528H417.28V394.384H415.048V397.528ZM408.616 397.528H410.656V394.384H408.616V397.528ZM411.856 397.528H413.848V394.384H411.856V397.528ZM429.52 403.576V402.208H436.144V398.968H431.368V397.6H436.144V394.552H431.32V384.328H442.456V394.552H437.608V397.6H442.72V398.968H437.608V402.208H443.776V403.576H429.52ZM422.392 401.848L421.936 400.408C422.416 400.312 422.984 400.184 423.64 400.024C424.296 399.864 424.976 399.696 425.68 399.52V393.208H422.704V391.816H425.68V386.296H422.44V384.904H430.336V386.296H427.168V391.816H430V393.208H427.168V399.112C427.808 398.936 428.408 398.768 428.968 398.608C429.528 398.448 430.008 398.304 430.408 398.176V399.568C429.96 399.728 429.392 399.912 428.704 400.12C428.032 400.328 427.312 400.544 426.544 400.768C425.776 400.976 425.024 401.176 424.288 401.368C423.568 401.56 422.936 401.72 422.392 401.848ZM432.736 393.256H436.144V390.064H432.736V393.256ZM437.608 393.256H441.016V390.064H437.608V393.256ZM432.736 388.792H436.144V385.624H432.736V388.792ZM437.608 388.792H441.016V385.624H437.608V388.792ZM463.48 402.544C462.12 402.784 460.784 402.952 459.472 403.048C458.16 403.16 456.936 403.168 455.8 403.072C454.68 402.992 453.688 402.792 452.824 402.472C451.976 402.136 451.304 401.656 450.808 401.032C450.328 400.408 450.088 399.616 450.088 398.656C450.088 397.856 450.32 397.128 450.784 396.472C451.264 395.8 451.92 395.184 452.752 394.624C453.6 394.064 454.568 393.552 455.656 393.088C455.176 392.16 454.848 390.984 454.672 389.56C454.496 388.12 454.416 386.288 454.432 384.064H456.16C456.048 385.072 456.008 386.112 456.04 387.184C456.072 388.256 456.168 389.264 456.328 390.208C456.504 391.152 456.736 391.936 457.024 392.56C457.824 392.272 458.648 392 459.496 391.744C460.36 391.488 461.232 391.256 462.112 391.048L462.544 392.656C461.056 392.88 459.656 393.2 458.344 393.616C457.032 394.032 455.872 394.512 454.864 395.056C453.872 395.584 453.088 396.152 452.512 396.76C451.936 397.368 451.648 397.984 451.648 398.608C451.648 399.456 451.976 400.12 452.632 400.6C453.288 401.064 454.184 401.376 455.32 401.536C456.456 401.68 457.744 401.688 459.184 401.56C460.64 401.432 462.168 401.192 463.768 400.84C463.688 401.064 463.616 401.352 463.552 401.704C463.504 402.04 463.48 402.32 463.48 402.544ZM482.44 397.84C482.408 397.792 482.32 397.696 482.176 397.552C482.048 397.408 481.912 397.264 481.768 397.12C481.624 396.976 481.52 396.888 481.456 396.856C482.064 396.488 482.672 396.04 483.28 395.512C483.888 394.984 484.464 394.4 485.008 393.76C484.464 392.912 484.008 391.928 483.64 390.808C483.272 389.688 483 388.424 482.824 387.016H473.968V388.864C473.968 390.608 473.736 392.176 473.272 393.568C472.808 394.944 472.008 396.28 470.872 397.576C470.824 397.528 470.712 397.448 470.536 397.336C470.376 397.224 470.208 397.112 470.032 397C469.872 396.888 469.752 396.824 469.672 396.808C470.296 396.152 470.824 395.456 471.256 394.72C471.688 393.984 472.008 393.144 472.216 392.2C472.44 391.24 472.552 390.128 472.552 388.864V385.696H482.68C482.648 385.28 482.624 384.848 482.608 384.4C482.592 383.936 482.584 383.464 482.584 382.984H484.024C484.024 383.944 484.048 384.848 484.096 385.696H487.624C487.384 385.376 487.08 385.016 486.712 384.616C486.344 384.2 486.032 383.888 485.776 383.68L486.808 382.864C487.112 383.12 487.456 383.456 487.84 383.872C488.224 384.288 488.536 384.656 488.776 384.976L487.792 385.696H490.936V387.016H484.24C484.496 389.304 485.056 391.16 485.92 392.584C486.336 392.008 486.712 391.416 487.048 390.808C487.4 390.2 487.688 389.584 487.912 388.96L489.256 389.56C488.632 391 487.792 392.384 486.736 393.712C487.536 394.608 488.496 395.312 489.616 395.824C489.776 395.536 489.952 395.168 490.144 394.72C490.336 394.256 490.488 393.832 490.6 393.448C490.664 393.48 490.784 393.536 490.96 393.616C491.136 393.696 491.312 393.776 491.488 393.856C491.664 393.936 491.784 393.984 491.848 394C491.688 394.544 491.496 395.072 491.272 395.584C491.048 396.08 490.848 396.496 490.672 396.832C490.496 397.152 490.264 397.328 489.976 397.36C489.704 397.392 489.36 397.32 488.944 397.144C487.728 396.6 486.68 395.824 485.8 394.816C484.76 395.968 483.64 396.976 482.44 397.84ZM475.36 395.992V391.312H481.648V395.992H475.36ZM478.408 404.2C477.656 404.2 477.136 404.08 476.848 403.84C476.56 403.6 476.416 403.192 476.416 402.616V397.96H477.856V402.064C477.856 402.32 477.92 402.512 478.048 402.64C478.176 402.752 478.424 402.808 478.792 402.808H482.752C483.216 402.808 483.592 402.752 483.88 402.64C484.168 402.528 484.392 402.288 484.552 401.92C484.712 401.552 484.824 400.984 484.888 400.216C485.048 400.312 485.264 400.408 485.536 400.504C485.808 400.6 486.048 400.688 486.256 400.768C486.144 401.776 485.952 402.52 485.68 403C485.424 403.496 485.08 403.816 484.648 403.96C484.216 404.12 483.688 404.2 483.064 404.2H478.408ZM476.632 394.792H480.376V392.512H476.632V394.792ZM471.16 403.984C471.112 403.92 471 403.824 470.824 403.696C470.664 403.568 470.496 403.448 470.32 403.336C470.16 403.224 470.048 403.152 469.984 403.12C470.368 402.784 470.768 402.344 471.184 401.8C471.6 401.256 471.984 400.688 472.336 400.096C472.704 399.504 472.976 398.968 473.152 398.488L474.472 399.04C474.264 399.552 473.976 400.12 473.608 400.744C473.24 401.368 472.84 401.976 472.408 402.568C471.976 403.144 471.56 403.616 471.16 403.984ZM490.504 403.864C490.28 403.416 489.96 402.896 489.544 402.304C489.144 401.712 488.728 401.144 488.296 400.6C487.88 400.04 487.52 399.616 487.216 399.328L488.392 398.536C488.696 398.84 489.064 399.264 489.496 399.808C489.928 400.336 490.352 400.896 490.768 401.488C491.2 402.064 491.544 402.584 491.8 403.048C491.736 403.064 491.608 403.128 491.416 403.24C491.24 403.368 491.056 403.488 490.864 403.6C490.688 403.728 490.568 403.816 490.504 403.864ZM475.168 389.872V388.648H481.864V389.872H475.168ZM481.696 401.176C481.568 400.872 481.384 400.528 481.144 400.144C480.904 399.744 480.648 399.368 480.376 399.016C480.104 398.648 479.856 398.36 479.632 398.152L480.712 397.432C481.112 397.832 481.52 398.32 481.936 398.896C482.368 399.472 482.704 399.976 482.944 400.408C482.896 400.424 482.776 400.488 482.584 400.6C482.392 400.712 482.208 400.824 482.032 400.936C481.856 401.048 481.744 401.128 481.696 401.176ZM501.712 403.72V402.28H508V396.592H503.176V395.152H508V390.328H504.496C504.176 391.048 503.824 391.736 503.44 392.392C503.072 393.032 502.696 393.6 502.312 394.096C502.248 394.048 502.12 393.976 501.928 393.88C501.752 393.768 501.568 393.672 501.376 393.592C501.2 393.496 501.072 393.44 500.992 393.424C501.376 392.944 501.76 392.368 502.144 391.696C502.528 391.008 502.888 390.28 503.224 389.512C503.56 388.728 503.848 387.952 504.088 387.184C504.328 386.4 504.504 385.68 504.616 385.024L506.032 385.288C505.952 385.88 505.824 386.48 505.648 387.088C505.488 387.696 505.296 388.304 505.072 388.912H508V383.248H509.536V388.912H515.128V390.328H509.536V395.152H514.528V396.592H509.536V402.28H515.824V403.72H501.712ZM497.44 404.728V383.056H498.952V404.728H497.44ZM495.208 395.296C495.16 395.264 495.04 395.224 494.848 395.176C494.656 395.112 494.464 395.048 494.272 394.984C494.096 394.92 493.976 394.888 493.912 394.888C494.04 394.52 494.16 394.048 494.272 393.472C494.4 392.88 494.512 392.256 494.608 391.6C494.704 390.928 494.776 390.288 494.824 389.68C494.888 389.072 494.92 388.552 494.92 388.12L496.264 388.216C496.248 388.744 496.208 389.336 496.144 389.992C496.08 390.648 495.992 391.312 495.88 391.984C495.784 392.656 495.68 393.288 495.568 393.88C495.456 394.456 495.336 394.928 495.208 395.296ZM501.064 391.192C500.856 390.76 500.568 390.248 500.2 389.656C499.848 389.048 499.504 388.528 499.168 388.096L500.224 387.376C500.608 387.904 500.984 388.448 501.352 389.008C501.736 389.568 502.024 390.056 502.216 390.472L501.064 391.192ZM530.608 402.592C530.544 402.384 530.416 402.128 530.224 401.824C530.032 401.52 529.856 401.288 529.696 401.128C531.088 400.92 532.296 400.496 533.32 399.856C534.344 399.216 535.144 398.432 535.72 397.504C536.296 396.576 536.608 395.584 536.656 394.528C536.704 393.536 536.568 392.616 536.248 391.768C535.944 390.904 535.488 390.152 534.88 389.512C534.288 388.856 533.584 388.336 532.768 387.952C531.968 387.568 531.104 387.352 530.176 387.304H529.84C529.744 388.936 529.512 390.56 529.144 392.176C528.776 393.792 528.296 395.28 527.704 396.64C527.128 397.984 526.44 399.096 525.64 399.976C525.176 400.488 524.688 400.8 524.176 400.912C523.664 401.008 523.128 400.944 522.568 400.72C522.024 400.496 521.528 400.112 521.08 399.568C520.632 399.024 520.28 398.368 520.024 397.6C519.784 396.816 519.688 395.968 519.736 395.056C519.8 393.696 520.112 392.448 520.672 391.312C521.248 390.16 522.016 389.168 522.976 388.336C523.936 387.488 525.032 386.848 526.264 386.416C527.512 385.968 528.84 385.784 530.248 385.864C531.32 385.912 532.344 386.16 533.32 386.608C534.296 387.056 535.16 387.664 535.912 388.432C536.68 389.2 537.264 390.112 537.664 391.168C538.08 392.208 538.256 393.36 538.192 394.624C538.096 396.592 537.384 398.28 536.056 399.688C534.744 401.096 532.928 402.064 530.608 402.592ZM523.024 399.208C523.232 399.304 523.472 399.352 523.744 399.352C524.016 399.336 524.288 399.184 524.56 398.896C525.232 398.176 525.832 397.216 526.36 396.016C526.888 394.8 527.32 393.448 527.656 391.96C527.992 390.472 528.208 388.952 528.304 387.4C526.976 387.592 525.792 388.056 524.752 388.792C523.712 389.512 522.88 390.424 522.256 391.528C521.648 392.616 521.304 393.816 521.224 395.128C521.176 396.136 521.336 397.008 521.704 397.744C522.088 398.464 522.528 398.952 523.024 399.208ZM558.784 404.656C558.768 404.432 558.72 404.168 558.64 403.864C558.576 403.576 558.504 403.352 558.424 403.192H560.296C560.92 403.192 561.232 402.912 561.232 402.352V391.408H554.296V383.8H562.744V402.688C562.744 403.328 562.568 403.816 562.216 404.152C561.88 404.488 561.336 404.656 560.584 404.656H558.784ZM543.28 404.704V383.8H551.704V391.408H544.768V404.704H543.28ZM548.848 402.04V393.448H557.08V402.04H548.848ZM550.288 400.792H555.64V398.32H550.288V400.792ZM550.288 397.144H555.64V394.696H550.288V397.144ZM544.768 390.112H550.24V388.192H544.768V390.112ZM555.76 390.112H561.232V388.192H555.76V390.112ZM544.768 386.944H550.24V385.096H544.768V386.944ZM555.76 386.944H561.232V385.096H555.76V386.944ZM582.424 403.384C580.888 403.208 579.528 402.744 578.344 401.992C577.16 401.24 576.232 400.272 575.56 399.088C574.888 397.904 574.552 396.608 574.552 395.2C574.552 394.384 574.704 393.52 575.008 392.608C575.312 391.68 575.776 390.776 576.4 389.896C577.04 389.016 577.856 388.256 578.848 387.616C577.824 387.792 576.76 387.984 575.656 388.192C574.568 388.384 573.512 388.576 572.488 388.768C571.48 388.944 570.568 389.112 569.752 389.272C568.952 389.432 568.328 389.568 567.88 389.68L567.472 388.024C568 387.96 568.704 387.864 569.584 387.736C570.48 387.608 571.48 387.464 572.584 387.304C573.688 387.128 574.824 386.936 575.992 386.728C577.176 386.52 578.312 386.32 579.4 386.128C580.504 385.92 581.496 385.728 582.376 385.552C583.272 385.36 583.984 385.2 584.512 385.072L584.92 386.632C584.712 386.664 584.448 386.704 584.128 386.752C583.824 386.8 583.472 386.856 583.072 386.92C582.112 387.08 581.208 387.416 580.36 387.928C579.512 388.44 578.768 389.08 578.128 389.848C577.488 390.6 576.984 391.44 576.616 392.368C576.264 393.28 576.088 394.224 576.088 395.2C576.088 396.512 576.416 397.64 577.072 398.584C577.728 399.528 578.6 400.272 579.688 400.816C580.776 401.36 581.968 401.712 583.264 401.872C583.088 402.064 582.92 402.312 582.76 402.616C582.6 402.92 582.488 403.176 582.424 403.384ZM586.312 393.04C586.088 392.72 585.8 392.368 585.448 391.984C585.096 391.584 584.728 391.208 584.344 390.856C583.96 390.488 583.616 390.192 583.312 389.968L584.128 389.272C584.4 389.48 584.736 389.776 585.136 390.16C585.536 390.544 585.92 390.936 586.288 391.336C586.672 391.72 586.968 392.048 587.176 392.32L586.312 393.04ZM584.416 394.768C584.208 394.432 583.928 394.064 583.576 393.664C583.24 393.264 582.888 392.88 582.52 392.512C582.152 392.144 581.816 391.848 581.512 391.624L582.328 390.952C582.6 391.16 582.928 391.464 583.312 391.864C583.696 392.264 584.072 392.672 584.44 393.088C584.808 393.488 585.088 393.824 585.28 394.096L584.416 394.768ZM595.192 404.128C594.92 403.664 594.52 403.144 593.992 402.568C593.48 401.976 592.936 401.408 592.36 400.864C591.8 400.304 591.296 399.856 590.848 399.52L591.904 398.56C592.384 398.912 592.92 399.368 593.512 399.928C594.104 400.472 594.664 401.032 595.192 401.608C595.736 402.168 596.152 402.648 596.44 403.048L595.192 404.128ZM411.112 439.752V435.312H407.68V433.824H411.112V426.792C410.584 427.864 409.944 428.944 409.192 430.032C408.456 431.104 407.68 432.112 406.864 433.056C406.064 434 405.304 434.808 404.584 435.48C404.536 435.416 404.424 435.312 404.248 435.168C404.088 435.024 403.928 434.888 403.768 434.76C403.608 434.616 403.488 434.528 403.408 434.496C404.048 433.936 404.72 433.264 405.424 432.48C406.128 431.696 406.816 430.856 407.488 429.96C408.176 429.048 408.792 428.128 409.336 427.2C409.896 426.272 410.344 425.4 410.68 424.584H404.704V423.144H411.112V418.056H412.624V423.144H419.08V424.584H412.912C413.248 425.4 413.696 426.264 414.256 427.176C414.816 428.088 415.432 429 416.104 429.912C416.792 430.808 417.496 431.648 418.216 432.432C418.936 433.2 419.616 433.864 420.256 434.424C420.192 434.456 420.072 434.544 419.896 434.688C419.72 434.832 419.544 434.976 419.368 435.12C419.208 435.264 419.104 435.376 419.056 435.456C418.352 434.8 417.6 434.016 416.8 433.104C416.016 432.176 415.256 431.184 414.52 430.128C413.8 429.072 413.168 428.024 412.624 426.984V433.824H416.08V435.312H412.624V439.752H411.112ZM401.584 439.752V425.832C401.104 426.568 400.616 427.264 400.12 427.92C399.624 428.576 399.128 429.16 398.632 429.672C398.504 429.512 398.328 429.344 398.104 429.168C397.88 428.992 397.68 428.856 397.504 428.76C397.984 428.312 398.48 427.752 398.992 427.08C399.504 426.392 400.008 425.648 400.504 424.848C401 424.032 401.464 423.216 401.896 422.4C402.328 421.568 402.696 420.776 403 420.024C403.32 419.272 403.552 418.616 403.696 418.056L405.184 418.488C404.96 419.224 404.664 420 404.296 420.816C403.944 421.632 403.552 422.44 403.12 423.24V439.752H401.584ZM431.68 439.8C431.648 439.736 431.576 439.616 431.464 439.44C431.352 439.264 431.24 439.088 431.128 438.912C431.016 438.736 430.928 438.624 430.864 438.576C432.576 438.016 433.88 437.288 434.776 436.392C435.688 435.48 436.272 434.304 436.528 432.864H432.232V427.44H436.672V425.352H433.48V424.056H441.064V425.352H438.088V427.44H442.576V432.864H438.472C438.92 434.112 439.664 435.224 440.704 436.2C441.744 437.16 442.92 437.896 444.232 438.408C444.184 438.456 444.088 438.568 443.944 438.744C443.816 438.936 443.688 439.12 443.56 439.296C443.448 439.472 443.376 439.592 443.344 439.656C442.16 439.128 441.056 438.4 440.032 437.472C439.024 436.544 438.24 435.4 437.68 434.04C437.28 435.448 436.568 436.6 435.544 437.496C434.52 438.376 433.232 439.144 431.68 439.8ZM426.4 439.632C426.368 439.44 426.32 439.2 426.256 438.912C426.192 438.64 426.128 438.432 426.064 438.288H427.552C428.208 438.288 428.64 438.184 428.848 437.976C429.072 437.752 429.256 437.304 429.4 436.632C429.496 436.232 429.568 435.728 429.616 435.12C429.664 434.512 429.696 433.864 429.712 433.176C429.728 432.472 429.736 431.784 429.736 431.112H423.112V418.992H431.152V420.288H428.08V422.52H430.6V423.768H428.08V426.024H430.6V427.248H428.08V429.864H431.152C431.152 431.176 431.12 432.488 431.056 433.8C430.992 435.112 430.872 436.208 430.696 437.088C430.504 438.08 430.192 438.752 429.76 439.104C429.328 439.456 428.632 439.632 427.672 439.632H426.4ZM431.272 425.472C431.24 425.408 431.16 425.304 431.032 425.16C430.904 425 430.776 424.84 430.648 424.68C430.52 424.52 430.424 424.416 430.36 424.368C430.936 424.08 431.528 423.704 432.136 423.24C432.744 422.76 433.336 422.224 433.912 421.632C434.488 421.04 435.008 420.424 435.472 419.784C435.936 419.144 436.296 418.512 436.552 417.888L437.8 418.104C438.232 418.872 438.8 419.624 439.504 420.36C440.224 421.096 441.008 421.768 441.856 422.376C442.704 422.968 443.544 423.456 444.376 423.84C444.312 423.904 444.208 424.032 444.064 424.224C443.936 424.4 443.808 424.584 443.68 424.776C443.568 424.968 443.496 425.096 443.464 425.16C442.696 424.744 441.904 424.232 441.088 423.624C440.288 423 439.544 422.328 438.856 421.608C438.184 420.888 437.648 420.184 437.248 419.496C436.848 420.216 436.296 420.968 435.592 421.752C434.904 422.52 434.176 423.232 433.408 423.888C432.64 424.544 431.928 425.072 431.272 425.472ZM438.064 431.592H441.208V428.712H438.088V430.968C438.088 431.08 438.088 431.192 438.088 431.304C438.088 431.4 438.08 431.496 438.064 431.592ZM433.6 431.592H436.648C436.664 431.496 436.672 431.4 436.672 431.304C436.672 431.192 436.672 431.08 436.672 430.968V428.712H433.6V431.592ZM424.432 429.864H426.784V427.248H424.432V429.864ZM424.432 426.024H426.784V423.768H424.432V426.024ZM424.432 422.52H426.784V420.288H424.432V422.52ZM422.176 436.968C422.208 436.632 422.232 436.192 422.248 435.648C422.28 435.088 422.296 434.536 422.296 433.992C422.312 433.432 422.304 433 422.272 432.696L423.448 432.624C423.464 432.928 423.464 433.36 423.448 433.92C423.448 434.48 423.44 435.04 423.424 435.6C423.424 436.16 423.416 436.6 423.4 436.92C423.288 436.92 423.08 436.928 422.776 436.944C422.488 436.944 422.288 436.952 422.176 436.968ZM424.456 436.416C424.456 436.112 424.44 435.72 424.408 435.24C424.392 434.744 424.36 434.264 424.312 433.8C424.264 433.32 424.216 432.96 424.168 432.72L425.224 432.576C425.272 432.864 425.32 433.248 425.368 433.728C425.416 434.192 425.456 434.656 425.488 435.12C425.536 435.584 425.56 435.96 425.56 436.248C425.528 436.248 425.432 436.264 425.272 436.296C425.112 436.312 424.952 436.336 424.792 436.368C424.632 436.384 424.52 436.4 424.456 436.416ZM426.472 435.936C426.456 435.616 426.416 435.24 426.352 434.808C426.288 434.376 426.216 433.952 426.136 433.536C426.072 433.104 426 432.768 425.92 432.528L426.928 432.312C427.008 432.584 427.088 432.936 427.168 433.368C427.248 433.8 427.32 434.232 427.384 434.664C427.448 435.08 427.496 435.424 427.528 435.696C427.496 435.696 427.4 435.72 427.24 435.768C427.08 435.8 426.92 435.832 426.76 435.864C426.6 435.896 426.504 435.92 426.472 435.936ZM428.392 435.432C428.328 434.968 428.216 434.432 428.056 433.824C427.912 433.2 427.768 432.688 427.624 432.288L428.584 432C428.68 432.256 428.776 432.576 428.872 432.96C428.984 433.344 429.08 433.728 429.16 434.112C429.256 434.496 429.328 434.824 429.376 435.096C429.344 435.096 429.256 435.128 429.112 435.192C428.968 435.24 428.816 435.288 428.656 435.336C428.512 435.384 428.424 435.416 428.392 435.432ZM458.68 438.816C457.528 438.816 456.496 438.696 455.584 438.456C454.688 438.216 453.976 437.856 453.448 437.376C452.92 436.88 452.656 436.248 452.656 435.48C452.656 434.808 452.888 434.184 453.352 433.608C453.832 433.016 454.464 432.472 455.248 431.976C456.048 431.48 456.928 431.032 457.888 430.632V430.32C457.888 429.424 457.736 428.816 457.432 428.496C457.128 428.176 456.712 428.008 456.184 427.992C455.304 427.944 454.384 428.104 453.424 428.472C452.464 428.824 451.648 429.36 450.976 430.08C450.672 430.416 450.368 430.736 450.064 431.04C449.776 431.328 449.488 431.608 449.2 431.88L448.048 430.728C449.232 429.864 450.32 428.808 451.312 427.56C452.32 426.296 453.144 425.008 453.784 423.696C452.712 423.76 451.736 423.8 450.856 423.816C449.976 423.832 449.328 423.832 448.912 423.816L448.84 422.28C449.336 422.328 450.096 422.352 451.12 422.352C452.144 422.352 453.248 422.32 454.432 422.256C454.672 421.648 454.856 421.048 454.984 420.456C455.128 419.864 455.2 419.312 455.2 418.8L456.784 418.896C456.752 419.44 456.672 419.984 456.544 420.528C456.432 421.056 456.288 421.6 456.112 422.16C457.392 422.08 458.592 421.976 459.712 421.848C460.848 421.72 461.704 421.576 462.28 421.416L462.424 422.88C461.976 422.976 461.384 423.072 460.648 423.168C459.912 423.248 459.104 423.328 458.224 423.408C457.36 423.472 456.472 423.536 455.56 423.6C455.272 424.24 454.912 424.904 454.48 425.592C454.064 426.28 453.624 426.928 453.16 427.536C453.624 427.248 454.16 427.032 454.768 426.888C455.376 426.744 455.928 426.672 456.424 426.672C458.296 426.672 459.28 427.8 459.376 430.056C460.368 429.688 461.36 429.368 462.352 429.096C463.344 428.808 464.232 428.576 465.016 428.4L465.472 429.84C464.4 430.016 463.344 430.248 462.304 430.536C461.28 430.808 460.312 431.12 459.4 431.472V434.88H457.888V432.072C456.784 432.568 455.888 433.104 455.2 433.68C454.512 434.256 454.168 434.816 454.168 435.36C454.168 436.032 454.568 436.528 455.368 436.848C456.168 437.168 457.232 437.328 458.56 437.328C459.296 437.328 460.104 437.264 460.984 437.136C461.88 437.008 462.72 436.824 463.504 436.584C463.488 436.664 463.488 436.808 463.504 437.016C463.536 437.224 463.568 437.432 463.6 437.64C463.616 437.768 463.624 437.88 463.624 437.976C463.64 438.056 463.648 438.12 463.648 438.168C462.832 438.376 461.992 438.536 461.128 438.648C460.264 438.76 459.448 438.816 458.68 438.816ZM479.344 439.632C479.328 439.552 479.264 439.424 479.152 439.248C479.056 439.072 478.952 438.896 478.84 438.72C478.728 438.56 478.64 438.456 478.576 438.408C479.696 438.072 480.744 437.608 481.72 437.016C482.712 436.408 483.6 435.728 484.384 434.976C483.696 434.192 483.104 433.368 482.608 432.504C482.112 431.624 481.704 430.72 481.384 429.792H479.392V428.424H489.376L489.952 429C489.568 430.104 489.08 431.16 488.488 432.168C487.896 433.16 487.216 434.088 486.448 434.952C487.28 435.688 488.176 436.336 489.136 436.896C490.112 437.44 491.112 437.848 492.136 438.12C492.088 438.184 491.992 438.304 491.848 438.48C491.72 438.672 491.6 438.856 491.488 439.032C491.376 439.224 491.304 439.36 491.272 439.44C490.12 439.056 489.056 438.576 488.08 438C487.104 437.424 486.216 436.768 485.416 436.032C484.568 436.816 483.632 437.512 482.608 438.12C481.6 438.744 480.512 439.248 479.344 439.632ZM471.52 438.936V432.384H478.072V438.936H471.52ZM479.92 427.704C479.856 427.64 479.744 427.544 479.584 427.416C479.44 427.288 479.288 427.16 479.128 427.032C478.968 426.904 478.84 426.824 478.744 426.792C479.672 426.216 480.36 425.504 480.808 424.656C481.256 423.808 481.48 422.68 481.48 421.272V418.896H487.744V424.68C487.744 424.904 487.8 425.064 487.912 425.16C488.024 425.256 488.248 425.304 488.584 425.304H489.52C489.808 425.304 490.048 425.248 490.24 425.136C490.432 425.024 490.584 424.792 490.696 424.44C490.824 424.088 490.912 423.56 490.96 422.856C491.12 422.936 491.336 423.024 491.608 423.12C491.88 423.216 492.112 423.288 492.304 423.336C492.24 424.296 492.096 425.024 491.872 425.52C491.664 426 491.376 426.328 491.008 426.504C490.64 426.664 490.176 426.744 489.616 426.744H488.296C487.528 426.744 487 426.64 486.712 426.432C486.424 426.208 486.28 425.832 486.28 425.304V420.264H482.968V421.344C482.952 422.8 482.72 424.016 482.272 424.992C481.824 425.952 481.04 426.856 479.92 427.704ZM472.912 437.616H476.68V433.68H472.912V437.616ZM485.392 433.92C485.968 433.264 486.472 432.584 486.904 431.88C487.352 431.176 487.712 430.48 487.984 429.792H482.848C483.104 430.528 483.448 431.248 483.88 431.952C484.328 432.64 484.832 433.296 485.392 433.92ZM470.272 423.888V422.568H479.008V423.888H470.272ZM471.448 420.624V419.28H477.952V420.624H471.448ZM471.424 430.416V429.12H477.952V430.416H471.424ZM471.424 427.152V425.856H477.952V427.152H471.424ZM495.496 438.984V432.384H502.912V438.984H495.496ZM509.152 439.536V427.08H504.184V425.64H509.152V418.152H510.712V425.64H515.608V427.08H510.712V439.536H509.152ZM496.912 437.664H501.472V433.68H496.912V437.664ZM494.344 423.888V422.568H503.8V423.888H494.344ZM495.52 420.624V419.28H502.72V420.624H495.52ZM495.52 430.416V429.12H502.72V430.416H495.52ZM495.52 427.152V425.856H502.72V427.152H495.52ZM524.92 439.104C524.84 438.944 524.712 438.744 524.536 438.504C524.36 438.28 524.16 438.072 523.936 437.88C525.776 437.32 527.192 436.544 528.184 435.552C529.176 434.56 529.752 433.384 529.912 432.024C529.624 432.376 529.272 432.656 528.856 432.864C528.44 433.072 527.992 433.176 527.512 433.176C526.536 433.176 525.76 432.88 525.184 432.288C524.608 431.68 524.312 430.936 524.296 430.056C524.296 429.416 524.44 428.848 524.728 428.352C525.016 427.856 525.416 427.464 525.928 427.176C526.44 426.872 527.024 426.72 527.68 426.72C528.192 426.72 528.64 426.8 529.024 426.96C528.976 426.48 528.928 425.984 528.88 425.472C528.832 424.96 528.808 424.44 528.808 423.912C527.496 423.96 526.208 424.032 524.944 424.128C523.696 424.208 522.536 424.304 521.464 424.416C520.408 424.528 519.512 424.656 518.776 424.8L518.488 423.288C519.208 423.224 520.104 423.152 521.176 423.072C522.264 422.992 523.464 422.92 524.776 422.856C526.088 422.776 527.432 422.704 528.808 422.64V418.752H530.296V422.568C532.072 422.488 533.768 422.432 535.384 422.4C537 422.352 538.32 422.344 539.344 422.376L539.248 423.912C538.224 423.816 536.912 423.768 535.312 423.768C533.728 423.752 532.056 423.776 530.296 423.84C530.312 424.528 530.336 425.24 530.368 425.976C530.416 426.712 530.456 427.416 530.488 428.088C530.776 428.472 531 428.928 531.16 429.456C531.32 429.984 531.4 430.568 531.4 431.208C531.4 433.016 530.824 434.616 529.672 436.008C528.52 437.4 526.936 438.432 524.92 439.104ZM527.512 431.808C528.024 431.808 528.448 431.656 528.784 431.352C529.136 431.032 529.312 430.616 529.312 430.104C529.312 429.672 529.288 429.232 529.24 428.784C528.84 428.336 528.32 428.112 527.68 428.112C527.136 428.112 526.672 428.288 526.288 428.64C525.92 428.992 525.736 429.448 525.736 430.008C525.752 430.552 525.92 430.992 526.24 431.328C526.56 431.664 526.984 431.824 527.512 431.808ZM553.648 438.072C552.032 438.072 550.84 437.784 550.072 437.208C549.304 436.616 548.92 435.888 548.92 435.024C548.92 434.48 549.056 434.024 549.328 433.656C549.6 433.272 549.952 432.984 550.384 432.792C550.816 432.584 551.272 432.48 551.752 432.48C552.68 432.48 553.456 432.84 554.08 433.56C554.72 434.28 555.072 435.224 555.136 436.392C556.064 436.168 556.864 435.712 557.536 435.024C558.208 434.336 558.544 433.432 558.544 432.312C558.544 431.512 558.36 430.816 557.992 430.224C557.64 429.632 557.144 429.176 556.504 428.856C555.88 428.52 555.16 428.352 554.344 428.352C553.288 428.352 552.288 428.52 551.344 428.856C550.416 429.176 549.56 429.672 548.776 430.344C548.504 430.584 548.12 430.904 547.624 431.304C547.128 431.704 546.688 432.048 546.304 432.336L545.272 431.208C546.072 430.728 546.92 430.112 547.816 429.36C548.712 428.592 549.608 427.752 550.504 426.84C551.4 425.928 552.24 424.992 553.024 424.032C553.808 423.072 554.472 422.144 555.016 421.248C554.536 421.36 553.968 421.48 553.312 421.608C552.672 421.736 552 421.856 551.296 421.968C550.592 422.064 549.92 422.152 549.28 422.232C548.64 422.312 548.08 422.368 547.6 422.4L547.336 420.912C547.768 420.928 548.304 420.912 548.944 420.864C549.584 420.816 550.264 420.752 550.984 420.672C551.704 420.592 552.4 420.496 553.072 420.384C553.76 420.272 554.368 420.152 554.896 420.024C555.424 419.896 555.816 419.776 556.072 419.664L557.2 420.456C556.832 421.208 556.336 422.008 555.712 422.856C555.104 423.704 554.432 424.56 553.696 425.424C552.96 426.272 552.2 427.088 551.416 427.872C551.88 427.648 552.392 427.464 552.952 427.32C553.528 427.16 554.064 427.08 554.56 427.08C555.632 427.08 556.584 427.304 557.416 427.752C558.264 428.184 558.928 428.792 559.408 429.576C559.888 430.36 560.128 431.272 560.128 432.312C560.128 433.432 559.848 434.424 559.288 435.288C558.728 436.152 557.96 436.832 556.984 437.328C556.008 437.824 554.896 438.072 553.648 438.072ZM553.432 436.632H553.72C553.704 435.8 553.512 435.128 553.144 434.616C552.776 434.104 552.312 433.848 551.752 433.848C551.352 433.848 551.016 433.952 550.744 434.16C550.488 434.352 550.36 434.632 550.36 435C550.36 435.448 550.592 435.832 551.056 436.152C551.536 436.456 552.328 436.616 553.432 436.632ZM569.896 439.32C569.304 439.32 568.76 439.176 568.264 438.888C567.784 438.6 567.392 438.208 567.088 437.712C566.8 437.216 566.656 436.672 566.656 436.08C566.656 435.488 566.8 434.952 567.088 434.472C567.376 433.976 567.768 433.584 568.264 433.296C568.76 432.992 569.304 432.84 569.896 432.84C570.488 432.84 571.024 432.992 571.504 433.296C572 433.584 572.392 433.976 572.68 434.472C572.968 434.952 573.112 435.488 573.112 436.08C573.112 436.672 572.968 437.216 572.68 437.712C572.392 438.208 572 438.6 571.504 438.888C571.024 439.176 570.488 439.32 569.896 439.32ZM569.896 438.384C570.536 438.384 571.072 438.16 571.504 437.712C571.952 437.248 572.176 436.704 572.176 436.08C572.176 435.456 571.952 434.92 571.504 434.472C571.072 434.008 570.536 433.776 569.896 433.776C569.256 433.776 568.712 434 568.264 434.448C567.816 434.896 567.592 435.44 567.592 436.08C567.592 436.72 567.816 437.264 568.264 437.712C568.712 438.16 569.256 438.384 569.896 438.384Z" fill="white"/>
</g>
<defs>
<filter id="filter0_n_223_476" x="377.046" y="116.03" width="518.224" height="518.224" filterUnits="userSpaceOnUse" color-interpolation-filters="sRGB">
<feFlood flood-opacity="0" result="BackgroundImageFix"/>
<feBlend mode="normal" in="SourceGraphic" in2="BackgroundImageFix" result="shape"/>
<feTurbulence type="fractalNoise" baseFrequency="1 1" stitchTiles="stitch" numOctaves="3" result="noise" seed="8422" />
<feColorMatrix in="noise" type="luminanceToAlpha" result="alphaNoise" />
<feComponentTransfer in="alphaNoise" result="coloredNoise1">
<feFuncA type="discrete" tableValues="1 1 1 1 1 1 1 1 1 1 1 1 1 1 1 1 1 1 1 1 1 1 1 1 1 1 1 1 1 1 1 1 1 1 1 1 1 1 1 1 1 1 1 1 1 1 1 1 1 1 1 0 0 0 0 0 0 0 0 0 0 0 0 0 0 0 0 0 0 0 0 0 0 0 0 0 0 0 0 0 0 0 0 0 0 0 0 0 0 0 0 0 0 0 0 0 0 0 0 0 "/>
</feComponentTransfer>
<feComposite operator="in" in2="shape" in="coloredNoise1" result="noise1Clipped" />
<feFlood flood-color="rgba(255, 255, 255, 0.25)" result="color1Flood" />
<feComposite operator="in" in2="noise1Clipped" in="color1Flood" result="color1" />
<feMerge result="effect1_noise_223_476">
<feMergeNode in="shape" />
<feMergeNode in="color1" />
</feMerge>
</filter>
<filter id="filter1_n_223_476" x="9.39551" y="151.685" width="626.763" height="626.763" filterUnits="userSpaceOnUse" color-interpolation-filters="sRGB">
<feFlood flood-opacity="0" result="BackgroundImageFix"/>
<feBlend mode="normal" in="SourceGraphic" in2="BackgroundImageFix" result="shape"/>
<feTurbulence type="fractalNoise" baseFrequency="1 1" stitchTiles="stitch" numOctaves="3" result="noise" seed="2368" />
<feColorMatrix in="noise" type="luminanceToAlpha" result="alphaNoise" />
<feComponentTransfer in="alphaNoise" result="coloredNoise1">
<feFuncA type="discrete" tableValues="1 1 1 1 1 1 1 1 1 1 1 1 1 1 1 1 1 1 1 1 1 1 1 1 1 1 1 1 1 1 1 1 1 1 1 1 1 1 1 1 1 1 1 1 1 1 1 1 1 1 1 0 0 0 0 0 0 0 0 0 0 0 0 0 0 0 0 0 0 0 0 0 0 0 0 0 0 0 0 0 0 0 0 0 0 0 0 0 0 0 0 0 0 0 0 0 0 0 0 0 "/>
</feComponentTransfer>
<feComposite operator="in" in2="shape" in="coloredNoise1" result="noise1Clipped" />
<feFlood flood-color="rgba(255, 255, 255, 0.25)" result="color1Flood" />
<feComposite operator="in" in2="noise1Clipped" in="color1Flood" result="color1" />
<feMerge result="effect1_noise_223_476">
<feMergeNode in="shape" />
<feMergeNode in="color1" />
</feMerge>
</filter>
<filter id="filter2_n_223_476" x="9.38232" y="151.866" width="626.763" height="626.763" filterUnits="userSpaceOnUse" color-interpolation-filters="sRGB">
<feFlood flood-opacity="0" result="BackgroundImageFix"/>
<feBlend mode="normal" in="SourceGraphic" in2="BackgroundImageFix" result="shape"/>
<feTurbulence type="fractalNoise" baseFrequency="1 1" stitchTiles="stitch" numOctaves="3" result="noise" seed="2368" />
<feColorMatrix in="noise" type="luminanceToAlpha" result="alphaNoise" />
<feComponentTransfer in="alphaNoise" result="coloredNoise1">
<feFuncA type="discrete" tableValues="1 1 1 1 1 1 1 1 1 1 1 1 1 1 1 1 1 1 1 1 1 1 1 1 1 1 1 1 1 1 1 1 1 1 1 1 1 1 1 1 1 1 1 1 1 1 1 1 1 1 1 0 0 0 0 0 0 0 0 0 0 0 0 0 0 0 0 0 0 0 0 0 0 0 0 0 0 0 0 0 0 0 0 0 0 0 0 0 0 0 0 0 0 0 0 0 0 0 0 0 "/>
</feComponentTransfer>
<feComposite operator="in" in2="shape" in="coloredNoise1" result="noise1Clipped" />
<feFlood flood-color="rgba(255, 255, 255, 0.25)" result="color1Flood" />
<feComposite operator="in" in2="noise1Clipped" in="color1Flood" result="color1" />
<feMerge result="effect1_noise_223_476">
<feMergeNode in="shape" />
<feMergeNode in="color1" />
</feMerge>
</filter>
<filter id="filter3_d_223_476" x="388.504" y="373.864" width="218.936" height="76.936" filterUnits="userSpaceOnUse" color-interpolation-filters="sRGB">
<feFlood flood-opacity="0" result="BackgroundImageFix"/>
<feColorMatrix in="SourceAlpha" type="matrix" values="0 0 0 0 0 0 0 0 0 0 0 0 0 0 0 0 0 0 127 0" result="hardAlpha"/>
<feOffset dx="1" dy="1"/>
<feGaussianBlur stdDeviation="5"/>
<feComposite in2="hardAlpha" operator="out"/>
<feColorMatrix type="matrix" values="0 0 0 0 0.434814 0 0 0 0 0.434814 0 0 0 0 0.434814 0 0 0 0.25 0"/>
<feBlend mode="normal" in2="BackgroundImageFix" result="effect1_dropShadow_223_476"/>
<feBlend mode="normal" in="SourceGraphic" in2="effect1_dropShadow_223_476" result="shape"/>
</filter>
</defs>
</svg>
